<svg width="28" height="28" viewBox="0 0 28 28" fill="none" xmlns="http://www.w3.org/2000/svg">
<path d="M15 9.33334C15 8.78106 14.5523 8.33334 14 8.33334C13.4478 8.33334 13 8.78106 13 9.33334V13H9.33337C8.78109 13 8.33337 13.4477 8.33337 14C8.33337 14.5523 8.78109 15 9.33337 15H13V18.6667C13 19.219 13.4478 19.6667 14 19.6667C14.5523 19.6667 15 19.219 15 18.6667V15H18.6667C19.219 15 19.6667 14.5523 19.6667 14C19.6667 13.4477 19.219 13 18.6667 13H15V9.33334Z" fill="#ffffff"/>
<path fill-rule="evenodd" clip-rule="evenodd" d="M14 2.5C7.64873 2.5 2.5 7.64873 2.5 14C2.5 20.3513 7.64873 25.5 14 25.5C20.3513 25.5 25.5 20.3513 25.5 14C25.5 7.64873 20.3513 2.5 14 2.5ZM4.5 14C4.5 8.75329 8.75329 4.5 14 4.5C19.2467 4.5 23.5 8.75329 23.5 14C23.5 19.2467 19.2467 23.5 14 23.5C8.75329 23.5 4.5 19.2467 4.5 14Z" fill="#ffffff"/>
</svg>
